#!OML:ASF X:\für Bonn\!DataBase\2005_08_11_Bastian_Final\c3d\Bastian.ASF
:FULLY-SPECIFIED
:DEGREES
474
root -0.151684 1.26958 25.7253 -994.987 -3.02251 -903.477
lowerback 37.5446 -7.87386 -2.72491
upperback 25.8579 -0.386378 -5.11842
thorax 10.4482 5.63132 -3.01537
lowerneck 1.60201 -4.79942 -4.87237
upperneck 23.1999 -4.04358 -0.600119
head 6.93733 -1.44011 0.522676
rclavicle 1.23246e-014 -1.15295e-014
rhumerus -35.1723 22.1567 -73.3581
rradius 49.5537
rwrist 22.8448
rhand -37.2935 6.94146
rfingers 7.12502
rthumb -10.3578 -22.7834
lclavicle 1.23246e-014 -1.15295e-014
lhumerus -221.523 -174.867 254.434
lradius 51.8436
lwrist -0.78224
lhand -30.0877 -24.2314
lfingers 7.12502
lthumb -3.40211 5.72117
rfemur -13.6872 -0.00607414 23.1938
rtibia 42.9074
rfoot 12.091 -6.22806
rtoes -18.3393
lfemur -13.9886 7.4831 -18.4788
ltibia 43.875
lfoot 8.84145 8.99965
ltoes 7.49121
475
root -0.152669 1.26282 25.72 -995.168 -3.01988 -903.575
lowerback 37.1362 -7.82323 -2.55029
upperback 25.7858 -0.425336 -5.08151
thorax 10.4751 5.55275 -3.06523
lowerneck 1.8808 -4.81073 -4.97388
upperneck 23.2929 -4.0204 -0.601555
head 6.92336 -1.41654 0.547111
rclavicle -2.3059e-014 -3.97569e-015
rhumerus -35.2818 21.8953 -73.3114
rradius 49.7158
rwrist 23.2156
rhand -36.8471 6.98795
rfingers 7.12502
rthumb -9.9271 -22.758
lclavicle -2.3059e-014 -3.97569e-015
lhumerus -221.616 -174.613 254.489
lradius 51.8887
lwrist -0.93368
lhand -29.7331 -24.1023
lfingers 7.12502
lthumb -3.05967 5.85554
rfemur -13.3285 -0.0443902 23.156
rtibia 42.612
rfoot 12.0204 -6.42404
rtoes -18.3042
lfemur -13.1441 7.38176 -18.4625
ltibia 42.7901
lfoot 8.82848 8.85918
ltoes 6.79613
476
root -0.153696 1.25556 25.7149 -995.304 -2.99431 -903.665
lowerback 36.7042 -7.77895 -2.31164
upperback 25.6978 -0.464685 -5.05517
thorax 10.4875 5.47775 -3.1624
lowerneck 2.117 -4.83195 -5.03056
upperneck 23.4218 -4.01301 -0.586738
head 6.92778 -1.39524 0.567763
rclavicle 5.36719e-015 -9.93923e-015
rhumerus -35.441 21.6544 -73.3016
rradius 49.8902
rwrist 23.5464
rhand -36.4503 7.03118
rfingers 7.12502
rthumb -9.54425 -22.7327
lclavicle 5.36719e-015 -9.93923e-015
lhumerus -221.713 -174.317 254.502
lradius 51.9735
lwrist -1.1585
lhand -29.3952 -23.8475
lfingers 7.12502
lthumb -2.73335 6.11478
rfemur -13.0246 -0.0771543 23.1505
rtibia 42.3241
rfoot 11.9687 -6.63267
rtoes -18.2404
lfemur -12.3738 7.27424 -18.4283
ltibia 41.742
lfoot 8.88965 8.79789
ltoes 6.61451
477
root -0.154788 1.24851 25.7105 -995.451 -2.99092 -903.74
lowerback 36.2757 -7.72984 -2.12995
upperback 25.6212 -0.506722 -5.01351
thorax 10.5195 5.39658 -3.21127
lowerneck 2.30843 -4.84265 -5.1111
upperneck 23.538 -3.99001 -0.593265
head 6.93581 -1.37273 0.585333
rclavicle 6.75868e-015 8.34896e-015
rhumerus -35.5402 21.428 -73.2449
rradius 50.0466
rwrist 23.8906
rhand -36.0547 6.97569
rfingers 7.12502
rthumb -9.16263 -22.8053
lclavicle 6.75868e-015 8.34896e-015
lhumerus -221.796 -174.072 254.551
lradius 52.0303
lwrist -1.34262
lhand -29.0481 -23.6395
lfingers 7.12502
lthumb -2.39816 6.32676
rfemur -12.7186 -0.109343 23.1141
rtibia 42.0446
rfoot 11.9005 -6.85794
rtoes -18.0366
lfemur -11.6035 7.15969 -18.4258
ltibia 40.727
lfoot 8.96973 8.77207
ltoes 6.46889
478
root -0.156211 1.24136 25.7067 -995.587 -2.98605 -903.822
lowerback 35.8484 -7.68458 -1.9371
upperback 25.5417 -0.550899 -4.98332
thorax 10.5485 5.31734 -3.27892
lowerneck 2.45983 -4.85857 -5.17923
upperneck 23.6826 -3.97045 -0.608344
head 6.95963 -1.35157 0.59721
rclavicle 9.54166e-015 0
rhumerus -35.6272 21.2385 -73.201
rradius 50.1982
rwrist 24.1932
rhand -35.6562 6.93844
rfingers 7.12502
rthumb -8.77804 -22.859
lclavicle 9.54166e-015 0
lhumerus -221.867 -173.824 254.572
lradius 52.091
lwrist -1.51974
lhand -28.6836 -23.4615
lfingers 7.12502
lthumb -2.04616 6.50841
rfemur -12.4282 -0.137757 23.0787
rtibia 41.7801
rfoot 11.8061 -7.07268
rtoes -17.8243
lfemur -10.8679 7.05545 -18.4297
ltibia 39.7435
lfoot 9.12583 8.7301
ltoes 6.42412
479
root -0.156879 1.23461 25.7033 -995.687 -2.96197 -903.899
lowerback 35.3822 -7.6268 -1.72853
upperback 25.4577 -0.583537 -4.93246
thorax 10.5882 5.23873 -3.33571
lowerneck 2.59055 -4.88131 -5.2289
upperneck 23.8492 -3.95562 -0.633204
head 6.99375 -1.33102 0.602355
rclavicle 4.77083e-015 -1.51076e-014
rhumerus -35.7395 21.0172 -73.1297
rradius 50.3936
rwrist 24.4868
rhand -35.2154 6.86677
rfingers 7.12502
rthumb -8.35268 -22.9481
lclavicle 4.77083e-015 -1.51076e-014
lhumerus -221.944 -173.589 254.613
lradius 52.1491
lwrist -1.74633
lhand -28.3548 -23.2471
lfingers 7.12502
lthumb -1.72862 6.72568
rfemur -12.1861 -0.15039 23.0743
rtibia 41.5296
rfoot 11.7111 -7.30191
rtoes -17.9191
lfemur -10.1818 6.90026 -18.4178
ltibia 38.7808
lfoot 9.25582 8.77303
ltoes 6.38096
480
root -0.158263 1.22698 25.7003 -995.79 -2.93466 -903.962
lowerback 34.9302 -7.58495 -1.52276
upperback 25.3821 -0.629682 -4.89037
thorax 10.6349 5.15918 -3.39717
lowerneck 2.74064 -4.89022 -5.28868
upperneck 23.9528 -3.93509 -0.644998
head 7.0041 -1.31101 0.6137
rclavicle -7.95139e-016 3.18055e-015
rhumerus -35.7825 20.7782 -73.0661
rradius 50.5522
rwrist 24.8578
rhand -34.8024 6.71025
rfingers 7.12502
rthumb -7.9541 -23.1201
lclavicle -7.95139e-016 3.18055e-015
lhumerus -221.98 -173.373 254.637
lradius 52.1848
lwrist -1.96371
lhand -28.0053 -23.0715
lfingers 7.12502
lthumb -1.39102 6.90372
rfemur -11.9527 -0.170858 23.0667
rtibia 41.2938
rfoot 11.6192 -7.54263
rtoes -17.8603
lfemur -9.5161 6.77375 -18.4059
ltibia 37.8409
lfoot 9.45569 8.82101
ltoes 6.37915
481
root -0.158726 1.22045 25.6975 -995.893 -2.93413 -904.029
lowerback 34.485 -7.5186 -1.36723
upperback 25.2899 -0.665077 -4.83183
thorax 10.6661 5.07233 -3.41914
lowerneck 2.91759 -4.89805 -5.37125
upperneck 24.0676 -3.90677 -0.660878
head 7.0143 -1.28698 0.628622
rclavicle 1.23246e-014 1.51076e-014
rhumerus -35.8817 20.6102 -72.9831
rradius 50.7595
rwrist 25.1364
rhand -34.3372 6.64764
rfingers 7.12502
rthumb -7.50504 -23.1992
lclavicle 1.23246e-014 1.51076e-014
lhumerus -222.069 -173.182 254.693
lradius 52.2439
lwrist -2.20068
lhand -27.6819 -22.8654
lfingers 7.12502
lthumb -1.07873 7.11162
rfemur -11.726 -0.151488 23.0371
rtibia 41.0739
rfoot 11.5176 -7.8007
rtoes -17.7459
lfemur -8.85175 6.63745 -18.43
ltibia 36.9162
lfoot 9.73406 8.93355
ltoes 6.78639
482
root -0.159539 1.21427 25.6969 -995.97 -2.93089 -904.066
lowerback 34.0101 -7.46859 -1.18319
upperback 25.2055 -0.711528 -4.7866
thorax 10.717 4.98725 -3.4675
lowerneck 3.06197 -4.91935 -5.41599
upperneck 24.1965 -3.89984 -0.671766
head 7.03404 -1.27051 0.637114
rclavicle 1.03368e-014 7.95139e-015
rhumerus -35.9367 20.303 -72.8982
rradius 50.9575
rwrist 25.5423
rhand -33.8729 6.50956
rfingers 7.12502
rthumb -7.05683 -23.3528
lclavicle 1.03368e-014 7.95139e-015
lhumerus -222.113 -173.015 254.713
lradius 52.2528
lwrist -2.47112
lhand -27.3446 -22.7127
lfingers 7.12502
lthumb -0.752897 7.26571
rfemur -11.5219 -0.123198 23.0098
rtibia 40.8643
rfoot 11.3673 -8.07942
rtoes -17.6572
lfemur -8.24039 6.46592 -18.4626
ltibia 36.0074
lfoot 9.9643 9.02515
ltoes 6.7958
483
root -0.159679 1.20853 25.6957 -996.061 -2.90569 -904.097
lowerback 33.5537 -7.41038 -1.00121
upperback 25.1178 -0.747482 -4.71993
thorax 10.7615 4.90591 -3.4947
lowerneck 3.20017 -4.94797 -5.43595
upperneck 24.319 -3.89673 -0.724389
head 7.05138 -1.25713 0.627543
rclavicle -1.59028e-015 -7.95139e-016
rhumerus -35.9687 19.9773 -72.789
rradius 51.1201
rwrist 25.9881
rhand -33.3862 6.39578
rfingers 7.12502
rthumb -6.58705 -23.4818
lclavicle -1.59028e-015 -7.95139e-016
lhumerus -222.175 -172.859 254.743
lradius 52.294
lwrist -2.72591
lhand -26.9957 -22.6028
lfingers 7.12502
lthumb -0.415975 7.37655
rfemur -11.3178 -0.118105 23.0138
rtibia 40.6697
rfoot 11.2432 -8.33576
rtoes -17.5595
lfemur -7.62151 6.30939 -18.4702
ltibia 35.1123
lfoot 10.2086 9.11973
ltoes 7.04231
484
root -0.158571 1.20274 25.6947 -996.128 -2.87907 -904.107
lowerback 33.0747 -7.354 -0.825519
upperback 25.0268 -0.79214 -4.6531
thorax 10.8126 4.81707 -3.51747
lowerneck 3.32591 -4.97151 -5.44425
upperneck 24.4483 -3.88695 -0.774108
head 7.07266 -1.23942 0.617131
rclavicle -2.38542e-015 1.35174e-014
rhumerus -36.0111 19.6771 -72.6995
rradius 51.2945
rwrist 26.4291
rhand -32.8759 6.29791
rfingers 7.12502
rthumb -6.09438 -23.5944
lclavicle -2.38542e-015 1.35174e-014
lhumerus -222.228 -172.758 254.751
lradius 52.2892
lwrist -3.02818
lhand -26.6085 -22.54
lfingers 7.12502
lthumb -0.0419929 7.43974
rfemur -11.1427 -0.0592991 23.0261
rtibia 40.4831
rfoot 11.093 -8.70293
rtoes -17.3116
lfemur -7.05285 6.15543 -18.4809
ltibia 34.233
lfoot 10.5061 9.17265
ltoes 7.24239
